<svg viewBox="0 -2 480 480" xmlns="http://www.w3.org/2000/svg" width="64" height="64">
  <rect y="110" width="480" height="256" fill="#A8E62E" rx="24"/>
  <circle cx="240" cy="239" r="80" fill="#4CAF50"/>
  <circle cx="380" cy="239" r="25" fill="#4CAF50"/>
  <circle cx="100" cy="239" r="25" fill="#4CAF50"/>
  <path d="M248 197.7h-16v32h-32v16h32v32h16v-32h32v-16h-32zM189.7 48l-10.4-10.3H304a8 8 0 0 1 8 8v16h16v-16a24 24 0 0 0-24-24H179.3l10.4-10.4L178.3 0l-29.6 29.7 29.6 29.6zM290.3 427.3l10.4 10.4H176a8 8 0 0 1-8-8v-16h-16v16a24 24 0 0 0 24 24h124.7L290.3 464l11.4 11.3 29.6-29.6-29.6-29.7zM152 381.7h16v16h-16zM312 77.7h16v16h-16zm0 0"/>
</svg>
