<svg xmlns="http://www.w3.org/2000/svg" viewBox="0 0 512 512" width="64" height="64">
  <path d="m42.6 460.7 25.5-20-9.9-42.6-30-8.3-25.5 20a7 7 0 0 0-1.2 9.7l31.3 40a7 7 0 0 0 9.8 1.2zM146.6 510.5l20-15.7a7 7 0 0 0 1.2-9.7l-40.5-51.7-23 1.4-8 22.9 40.5 51.7a7 7 0 0 0 9.8 1.1zM120.6 405.7 266 375.4l-54.7-95.7-72.8-66.9-64 134.2-1.8 48.8z" fill="#d3d3d3" fill-rule="evenodd"/>
  <path d="M300.7 381.8c10-8 11.8-22.7 4-32.8L173.3 181.6a23.3 23.3 0 0 0-36.6 28.8l1.8 2.4 127.5 162.6 1.9 2.4a23.4 23.4 0 0 0 32.7 4zM96.4 457.7l30.9-24.3.5-.4a11.2 11.2 0 0 0 1.9-15.6l-9.1-11.7-46-58.7-9.2-11.6a11.1 11.1 0 0 0-15.6-1.9l-32 25.1a11.1 11.1 0 0 0-1.8 15.6L28 389.8l40 51 12.1 15.4a11.2 11.2 0 0 0 15.6 2z" fill="#1d83d4" fill-rule="evenodd"/>
	<path d="M383.1 92.7c15.1-13.6 37.9-17.3 52-2.6a42.6 42.6 0 0 1 0 58.5l-6.3 6.3-46.2 45.8c-2 1.6-3 2.5-4 2.5s-2-1-4-2.5L328.6 155l-6.3-6.3a42.6 42.6 0 0 1 0-58.5c14-14.7 36.9-11 51.9 2.6 2.8 2.5 3.8 3.8 4.5 3.8.8 0 1.7-1.3 4.5-3.8zM344 262.4a133.5 133.5 0 1 0-75.8-54c6.3 16.4-2.6 35.7-16.2 49.6 8.3 8.5 50.9 17.7 69.1-4.1 7.2 3.4 14.9 6.3 23 8.5z" fill="#d3d3d3"/>
	<path d="m382.6 200.7 46.2-45.8 6.3-6.3a42.6 42.6 0 0 0 0-58.5c-14.1-14.7-36.9-11-52 2.6-2.8 2.5-3.7 3.8-4.5 3.8-.7 0-1.7-1.3-4.5-3.8-15-13.6-37.9-17.3-52-2.6a42.6 42.6 0 0 0 0 58.5l6.4 6.3 46.2 45.8c2 1.6 3 2.5 4 2.5s2-1 3.9-2.5z" fill="#F43737"/>
</svg>
