<svg viewBox="0 0 512 512" height="64" width="64" xmlns="http://www.w3.org/2000/svg">
	<rect x="32" y="210" width="448" height="286" fill="#eee" stroke="#666" stroke-width="32" rx="16"/>
	<path fill="#666" d="M136 271a15 15 0 100 30h15l30-30zM376 271h-45l30 30h15a15 15 0 100-30z"/>
	<path fill="#a8e62e" d="M346 0H166a15 15 0 00-15 15v286h210V15a15 15 0 00-15-15z"/>
	<path fill="#F43737" d="M286 331a45 45 0 00-30 11.4 45 45 0 00-30-11.4c-25.2 0-45 21-45 47.9 0 27.8 20.8 45.5 49.7 70l15.4 13.4a15 15 0 0019.8 0l15.4-13.3c28.9-24.6 49.7-42.3 49.7-70.1 0-26.9-19.8-47.9-45-47.9z"/>
	<g fill="#4CAF50">
		<circle cx="256" cy="61" r="15"/>
		<circle cx="256" cy="151" r="45"/>
		<circle cx="256" cy="241" r="15"/>
	</g>
</svg>